<svg xmlns="http://www.w3.org/2000/svg" version="1.1" viewBox="-5.0 -10.0 110.0 135.0">
 <path d="m83.004 46.348v7.1992h-4v-9.1992c0-1.1055 0.89453-2 2-2h5.3242l-36.328-30.062-16.145 13.359c-0.35547 0.32812-0.83203 0.53125-1.3555 0.53125-1.1055 0-2-0.89453-2-2v-7.4492h-8.3164v17.645c-0.003906 0.57422-0.25 1.1445-0.72656 1.5391l-7.7812 6.4375h5.3242c1.1055 0 2 0.89453 2 2v43.957h17.742v-17.094c0-3.0938 1.2656-5.9062 3.3047-7.9453 2.0469-2.0469 4.8594-3.3125 7.9531-3.3125s5.9062 1.2656 7.9453 3.3047c2.0469 2.0469 3.3125 4.8594 3.3125 7.9531v17.094h17.742v-22.047h4v24.047c0 1.1055-0.89453 2-2 2h-21.746c-1.1055 0-2-0.89453-2-2v-19.094c0-1.9961-0.81641-3.8125-2.1289-5.1289-1.3164-1.3125-3.1328-2.1289-5.1289-2.1289-2 0-3.8125 0.81641-5.1289 2.1289-1.3125 1.3164-2.1289 3.1328-2.1289 5.1289v19.094c0 1.1055-0.89453 2-2 2h-21.746c-1.1055 0-2-0.89453-2-2v-43.957h-8.875c-1.1055 0-2-0.89453-2-2 0-0.66016 0.32031-1.2461 0.8125-1.6094l11.246-9.3047v-18.707c0-1.1055 0.89453-2 2-2h12.316c1.1055 0 2 0.89453 2 2v5.2031l14.23-11.773c0.75781-0.62891 1.8438-0.60156 2.5664 0.015625l41.855 34.637c0.84766 0.70312 0.96875 1.9648 0.26562 2.8125-0.39453 0.47656-0.96484 0.72266-1.5391 0.72266l-8.875 0.003906zm-4 15.613v-4.1133h4v4.1133z"/>
<text x="0.0" y="117.5" font-size="5.0" font-weight="bold" font-family="Arbeit Regular, Helvetica, Arial-Unicode, Arial, Sans-serif" fill="#000000">Created by EX Liberus</text><text x="0.0" y="122.5" font-size="5.0" font-weight="bold" font-family="Arbeit Regular, Helvetica, Arial-Unicode, Arial, Sans-serif" fill="#000000">from Noun Project</text></svg>